<svg xmlns="http://www.w3.org/2000/svg" xmlns:xlink="http://www.w3.org/1999/xlink" id="Layer_1" width="80" height="120" x="0" y="0" enable-background="new 0 0 80 120" version="1.1" viewBox="0 0 80 120" xml:space="preserve"><g><linearGradient id="SVGID_1_" x1="40.001" x2="40.001" y1="59.392" y2="0" gradientUnits="userSpaceOnUse"><stop offset="0" style="stop-color:#949699"/><stop offset=".002" style="stop-color:#9a9c9f"/><stop offset=".009" style="stop-color:#b2b4b6"/><stop offset=".017" style="stop-color:#c3c5c6"/><stop offset=".025" style="stop-color:#cdcfd0"/><stop offset=".036" style="stop-color:#d0d2d3"/><stop offset=".305" style="stop-color:#e0e1e2"/><stop offset=".614" style="stop-color:#eaeaeb"/><stop offset="1" style="stop-color:#ededee"/></linearGradient><path fill="url(#SVGID_1_)" d="M80,6.33C80,2.833,76.705,0,72.636,0H7.363C3.296,0,0,2.833,0,6.33v53.062h80V6.33z"/><linearGradient id="SVGID_2_" x1="40.001" x2="40.001" y1="120" y2="59.999" gradientUnits="userSpaceOnUse"><stop offset="0" style="stop-color:#dfe0e1"/><stop offset=".186" style="stop-color:#e8e8e9"/><stop offset=".535" style="stop-color:#f2f2f3"/><stop offset=".97" style="stop-color:#f5f5f6"/><stop offset=".974" style="stop-color:#f0f0f1"/><stop offset=".985" style="stop-color:#e6e7e8"/><stop offset="1" style="stop-color:#e3e4e5"/></linearGradient><path fill="url(#SVGID_2_)" d="M0,59.999v53.604C0,117.136,3.296,120,7.363,120h65.272c4.069,0,7.364-2.864,7.364-6.397V59.999H0z"/><path fill="#3B3A3C" d="M3.242,57.876c0-0.564-0.724-1.024-1.622-1.024l0,0c-0.894,0-1.62,0.46-1.62,1.024v4.241 c0,0.566,0.726,1.022,1.62,1.022l0,0c0.898,0,1.622-0.456,1.622-1.022V57.876z"/><linearGradient id="SVGID_3_" x1="1.585" x2="1.585" y1="63.076" y2="56.922" gradientUnits="userSpaceOnUse"><stop offset="0" style="stop-color:#3e3e3f"/><stop offset=".287" style="stop-color:#404041"/><stop offset=".39" style="stop-color:#464748"/><stop offset=".464" style="stop-color:#525253"/><stop offset=".523" style="stop-color:#626364"/><stop offset=".574" style="stop-color:#78797a"/><stop offset=".618" style="stop-color:#919395"/><stop offset=".635" style="stop-color:#9d9fa1"/><stop offset="1" style="stop-color:#3b3a3c"/></linearGradient><path fill="url(#SVGID_3_)" d="M3.169,57.923c0-0.555-0.708-1.002-1.584-1.002l0,0C0.709,56.921,0,57.368,0,57.923v4.15 c0,0.556,0.709,1.003,1.585,1.003l0,0c0.875,0,1.584-0.447,1.584-1.003V57.923z"/><path fill="#3B3A3C" d="M76.756,62.12c0,0.565,0.73,1.024,1.627,1.024l0,0c0.896,0,1.617-0.459,1.617-1.024v-4.241 c0-0.566-0.722-1.023-1.617-1.023l0,0c-0.896,0-1.627,0.457-1.627,1.023V62.12z"/><linearGradient id="SVGID_4_" x1="-1153.92" x2="-1153.92" y1="-624.197" y2="-618.041" gradientTransform="matrix(-1 0 0 -1 -1075.5029 -561.1221)" gradientUnits="userSpaceOnUse"><stop offset="0" style="stop-color:#3e3e3f"/><stop offset=".287" style="stop-color:#404041"/><stop offset=".39" style="stop-color:#464748"/><stop offset=".464" style="stop-color:#525253"/><stop offset=".523" style="stop-color:#626364"/><stop offset=".574" style="stop-color:#78797a"/><stop offset=".618" style="stop-color:#919395"/><stop offset=".635" style="stop-color:#9d9fa1"/><stop offset="1" style="stop-color:#3b3a3c"/></linearGradient><path fill="url(#SVGID_4_)" d="M76.836,62.073c0,0.556,0.708,1.001,1.583,1.001l0,0c0.873,0,1.581-0.445,1.581-1.001v-4.152 c0-0.555-0.708-1.002-1.581-1.002l0,0c-0.875,0-1.583,0.447-1.583,1.002V62.073z"/><linearGradient id="SVGID_5_" x1="-1067.818" x2="-1067.818" y1="-765.518" y2="-735.486" gradientTransform="matrix(-1 0 0 -1 -1027.834 -646.9609)" gradientUnits="userSpaceOnUse"><stop offset="0" style="stop-color:#dfe0e1"/><stop offset=".188" style="stop-color:#e8e8e9"/><stop offset=".541" style="stop-color:#f2f2f3"/><stop offset=".982" style="stop-color:#f5f5f6"/><stop offset=".984" style="stop-color:#f0f0f1"/><stop offset=".991" style="stop-color:#e6e7e8"/><stop offset="1" style="stop-color:#e3e4e5"/></linearGradient><path fill="url(#SVGID_5_)" d="M8.652,118.557h62.658c3.903,0,7.072-2.861,7.072-6.393v-23.64 c-18.099,10.031-48.811,21.952-76.798,8.323v15.316C1.585,115.695,4.75,118.557,8.652,118.557z"/><linearGradient id="SVGID_6_" x1="-1067.818" x2="-1067.818" y1="-703.813" y2="-673.781" gradientTransform="matrix(-1 0 0 -1 -1027.834 -646.9609)" gradientUnits="userSpaceOnUse"><stop offset="0" style="stop-color:#949699"/><stop offset=".002" style="stop-color:#9a9c9f"/><stop offset=".009" style="stop-color:#b2b4b6"/><stop offset=".017" style="stop-color:#c3c5c6"/><stop offset=".025" style="stop-color:#cdcfd0"/><stop offset=".036" style="stop-color:#d0d2d3"/><stop offset=".305" style="stop-color:#e0e1e2"/><stop offset=".614" style="stop-color:#eaeaeb"/><stop offset="1" style="stop-color:#ededee"/></linearGradient><path fill="url(#SVGID_6_)" d="M8.652,56.852h62.658c3.903,0,7.072-2.861,7.072-6.392V26.82 c-18.099,10.034-48.811,21.95-76.798,8.327V50.46C1.585,53.991,4.75,56.852,8.652,56.852z"/><rect width="73.514" height="1.114" x="3.242" y="59.392" fill="#F1F1F2"/></g></svg>